<svg id="svg" version="1.1" xmlns="http://www.w3.org/2000/svg" xmlns:xlink="http://www.w3.org/1999/xlink" width="400" height="148.38709677419354" viewBox="0, 0, 400,148.38709677419354"><g id="svgg"><path id="path0" d="M26.000 74.167 L 26.000 122.333 200.000 122.333 L 374.000 122.333 374.000 74.167 L 374.000 26.000 200.000 26.000 L 26.000 26.000 26.000 74.167 " stroke="none" fill="#b4b4b4" fill-rule="evenodd"></path><path id="path1" d="M19.000 9.333 L 19.000 12.500 15.851 12.500 C 12.104 12.500,12.500 12.085,12.500 16.014 L 12.500 19.000 9.333 19.000 L 6.167 19.000 6.167 70.917 L 6.167 122.833 9.333 122.833 L 12.500 122.833 12.500 125.820 C 12.500 129.748,12.105 129.333,15.848 129.333 L 18.993 129.333 19.038 132.542 L 19.083 135.750 22.292 135.795 L 25.500 135.841 25.500 139.004 L 25.500 142.167 200.000 142.167 L 374.500 142.167 374.500 139.004 L 374.500 135.841 377.708 135.795 L 380.917 135.750 380.962 132.542 L 381.007 129.333 384.152 129.333 C 387.895 129.333,387.500 129.748,387.500 125.820 L 387.500 122.833 390.667 122.833 L 393.833 122.833 393.833 70.917 L 393.833 19.000 390.667 19.000 L 387.500 19.000 387.500 16.014 C 387.500 12.085,387.896 12.500,384.149 12.500 L 381.000 12.500 381.000 9.333 L 381.000 6.167 200.000 6.167 L 19.000 6.167 19.000 9.333 M380.595 19.405 C 380.988 19.797,380.950 122.095,380.558 122.529 C 380.310 122.802,379.980 122.833,377.391 122.833 L 374.500 122.833 374.500 125.695 C 374.500 128.124,374.458 128.603,374.224 128.862 C 373.815 129.314,26.304 129.343,25.805 128.891 C 25.532 128.644,25.500 128.313,25.500 125.724 L 25.500 122.833 22.638 122.833 C 20.209 122.833,19.730 122.792,19.471 122.558 C 19.080 122.203,18.984 19.860,19.375 19.416 C 19.691 19.057,380.237 19.046,380.595 19.405 " stroke="none" fill="#232323" fill-rule="evenodd"></path><path id="path2" d="M19.375 19.416 C 18.984 19.860,19.080 122.203,19.471 122.558 C 19.730 122.792,20.209 122.833,22.638 122.833 L 25.500 122.833 25.500 125.724 C 25.500 128.313,25.532 128.644,25.805 128.891 C 26.304 129.343,373.815 129.314,374.224 128.862 C 374.458 128.603,374.500 128.124,374.500 125.695 L 374.500 122.833 377.391 122.833 C 379.980 122.833,380.310 122.802,380.558 122.529 C 380.950 122.095,380.988 19.797,380.595 19.405 C 380.237 19.046,19.691 19.057,19.375 19.416 M373.903 25.768 C 374.251 25.901,374.315 122.119,373.967 122.467 C 373.675 122.758,26.325 122.758,26.033 122.467 C 25.734 122.168,25.743 25.898,26.042 25.777 C 26.342 25.656,373.587 25.647,373.903 25.768 " stroke="none" fill="#747474" fill-rule="evenodd"></path><path id="path3" d="M26.042 25.777 C 25.743 25.898,25.734 122.168,26.033 122.467 C 26.325 122.758,373.675 122.758,373.967 122.467 C 374.315 122.119,374.251 25.901,373.903 25.768 C 373.587 25.647,26.342 25.656,26.042 25.777 M374.000 74.167 L 374.000 122.333 200.000 122.333 L 26.000 122.333 26.000 74.167 L 26.000 26.000 200.000 26.000 L 374.000 26.000 374.000 74.167 " stroke="none" fill="#8898b8" fill-rule="evenodd"></path><path id="path4" d="M26.042 25.777 C 25.743 25.898,25.734 122.168,26.033 122.467 C 26.325 122.758,373.675 122.758,373.967 122.467 C 374.315 122.119,374.251 25.901,373.903 25.768 C 373.587 25.647,26.342 25.656,26.042 25.777 M374.000 74.167 L 374.000 122.333 200.000 122.333 L 26.000 122.333 26.000 74.167 L 26.000 26.000 200.000 26.000 L 374.000 26.000 374.000 74.167 " stroke="none" fill="#8898b8" fill-rule="evenodd"></path></g></svg>